<?xml version="1.0" standalone="no"?>
<!DOCTYPE svg PUBLIC "-//W3C//DTD SVG 20010904//EN"
 "http://www.w3.org/TR/2001/REC-SVG-20010904/DTD/svg10.dtd">
<svg version="1.0" xmlns="http://www.w3.org/2000/svg"
 width="864.000000pt" height="864.000000pt" viewBox="0 0 864.000000 864.000000"
 preserveAspectRatio="xMidYMid meet">
<metadata>
Created by potrace 1.14, written by Peter Selinger 2001-2017
</metadata>
<g transform="translate(0.000000,864.000000) scale(0.100000,-0.100000)"
fill="#000000" stroke="none">
<path d="M4095 8147 c-42 -17 -95 -50 -95 -59 0 -4 -6 -8 -14 -8 -8 0 -16 -3
-18 -7 -1 -5 -34 -35 -73 -67 -38 -33 -78 -69 -88 -80 -26 -31 -48 -85 -53
-136 -3 -25 -7 -56 -9 -70 -2 -14 -6 -50 -9 -81 -7 -76 -17 -151 -21 -169 -2
-8 -7 -31 -10 -50 -3 -19 -11 -53 -17 -75 -6 -22 -12 -44 -14 -50 -1 -5 -10
-39 -19 -75 -8 -36 -18 -81 -21 -100 -2 -19 -7 -42 -9 -50 -3 -8 -7 -31 -9
-50 -3 -19 -7 -51 -10 -70 -3 -19 -8 -57 -12 -85 -3 -27 -8 -58 -10 -69 -7
-37 -17 -132 -18 -163 -1 -18 -4 -33 -8 -33 -3 0 -5 -7 -4 -16 1 -9 -1 -41 -6
-72 -4 -32 -10 -86 -13 -122 -9 -125 -15 -161 -36 -208 -12 -26 -25 -56 -30
-67 -24 -56 -26 -174 -4 -221 20 -42 21 -90 11 -340 -5 -129 -4 -155 11 -185
9 -19 19 -36 22 -39 3 -3 18 -21 32 -40 l27 -36 -45 -94 c-47 -99 -52 -129
-40 -232 8 -62 14 -173 22 -423 7 -206 13 -304 20 -315 3 -5 1 -12 -5 -15 -7
-4 -7 -11 -2 -18 5 -7 10 -28 10 -47 1 -34 5 -75 21 -175 4 -27 6 -62 6 -77
-1 -16 1 -28 4 -28 3 0 5 -46 3 -102 -8 -248 -3 -444 13 -525 3 -15 7 -55 10
-88 3 -33 8 -76 10 -96 2 -19 7 -64 11 -100 3 -35 7 -75 9 -89 1 -14 5 -65 9
-115 4 -49 9 -101 12 -115 2 -14 6 -55 9 -90 3 -36 7 -81 10 -100 3 -19 7 -60
11 -90 15 -133 23 -188 34 -230 12 -48 21 -105 25 -170 4 -44 28 -155 49 -215
1 -5 6 -23 10 -40 4 -16 11 -39 16 -50 4 -11 14 -54 20 -95 13 -74 15 -95 24
-177 6 -64 16 -103 41 -163 13 -30 26 -71 29 -91 3 -20 8 -42 11 -50 3 -8 7
-27 9 -44 8 -52 17 -89 25 -100 4 -5 13 -30 20 -55 7 -25 24 -66 37 -92 14
-27 22 -48 18 -48 -3 0 3 -12 13 -27 10 -16 25 -41 33 -58 8 -16 27 -43 42
-60 16 -16 28 -33 28 -36 0 -10 66 -39 88 -39 22 0 39 34 46 92 12 96 57 175
104 181 40 6 46 22 47 139 3 178 19 232 52 178 21 -32 49 -42 68 -24 16 16 15
36 -1 174 -12 106 -5 479 11 560 3 14 7 42 10 64 3 21 7 50 10 65 4 26 12 119
20 241 23 375 38 559 50 620 3 14 7 40 10 60 3 20 8 47 11 60 12 55 14 67 19
105 4 22 8 58 11 80 2 21 7 51 10 65 5 23 11 73 17 145 2 17 5 35 8 40 3 6 6
24 7 40 3 48 23 126 47 180 36 81 37 85 41 195 5 138 12 249 19 280 3 14 7 36
10 50 3 14 7 36 10 50 10 49 23 135 23 150 0 8 3 38 6 65 3 28 8 91 11 140 2
50 7 128 10 175 3 47 8 114 10 150 2 36 7 121 10 190 11 227 31 338 75 413 52
88 59 163 44 437 -9 144 -9 305 -1 337 3 13 21 44 39 70 65 95 116 201 133
283 2 8 4 15 5 15 6 0 40 202 47 275 13 145 8 341 -11 394 -14 41 -57 125 -96
186 -30 49 -110 194 -110 201 0 5 -4 9 -10 9 -5 0 -10 6 -10 13 0 15 -130 152
-184 193 -21 16 -53 41 -70 56 -17 15 -39 30 -48 34 -10 3 -18 10 -18 15 0 5
-7 9 -15 9 -8 0 -15 5 -15 10 0 6 -4 10 -10 10 -5 0 -33 15 -62 33 -29 18 -71
42 -93 52 -22 11 -41 23 -43 28 -2 4 -9 7 -16 7 -7 0 -34 11 -62 24 -112 54
-257 78 -319 53z"/>
<path d="M7570 7059 c-68 -26 -84 -32 -100 -35 -29 -5 -225 -62 -275 -79 -81
-28 -137 -60 -183 -105 -68 -67 -180 -242 -196 -306 -8 -31 -9 -135 -2 -170 2
-12 7 -45 11 -75 18 -142 55 -230 132 -315 21 -22 62 -67 90 -100 29 -32 80
-88 113 -124 l59 -64 288 2 c158 1 315 4 348 7 54 4 173 17 185 20 118 31 162
55 230 125 142 149 233 328 231 458 0 53 -10 123 -19 137 -4 5 -7 17 -9 25 -2
17 -8 30 -62 142 -41 85 -111 178 -134 178 -18 0 -88 39 -123 69 -57 48 -74
61 -80 61 -3 0 -12 6 -19 14 -13 13 -156 76 -180 80 -5 1 -14 4 -20 8 -5 3
-26 9 -45 14 -45 10 -38 8 -90 24 -91 26 -104 27 -150 9z"/>
<path d="M778 6785 c-2 -1 -28 -5 -58 -9 -139 -16 -292 -76 -405 -161 -91 -68
-230 -195 -283 -258 -35 -42 -35 -46 -17 -147 4 -25 19 -140 30 -235 26 -226
57 -275 235 -372 30 -16 112 -62 182 -102 166 -94 225 -113 358 -117 153 -4
316 36 506 126 147 68 242 150 329 280 58 88 75 129 79 196 9 131 -80 332
-221 504 -70 86 -190 173 -249 183 -10 1 -23 5 -29 9 -38 23 -444 114 -457
103z"/>
</g>
</svg>
